<?xml version="1.0" encoding="utf-8"?>
<!-- Generator: Adobe Adobe Illustrator 24.2.0, SVG Export Plug-In . SVG Version: 6.00 Build 0)  -->
<svg version="1.1" id="Layer_1" xmlns="http://www.w3.org/2000/svg" xmlns:xlink="http://www.w3.org/1999/xlink" x="0px" y="0px"
	 width="497px" height="613px" viewBox="716 563 497 613" style="enable-background:new 716 563 497 613;" xml:space="preserve">
<g>
	<rect x="967.49" y="867.82" transform="matrix(0.4079 0.913 -0.913 0.4079 1533.38 -274.7259)" width="22" height="354"/>
	<polygon points="1212.36,940.35 1114.88,937.9 1149.14,1014.59 	"/>
	<polygon points="740.77,1113.77 813.82,1081.14 876.4,1103.57 801.73,1132.54 	"/>
	<polygon points="768.51,1175.86 841.55,1143.23 866.61,1081.65 795.2,1117.93 	"/>
</g>
<g>
	<g>
		<path d="M855.87,818.97c0.63,12.26,3.24,22.45,8.91,31.82c15.24,25.2,39.2,37.42,66.27,44.91c4.16,1.15,8.07,1.34,7.66,6.85
			c-0.48,6.44,0.73,11.56,7.54,14.49c2.04,0.88,2.72,3.26,1.52,5.95H948v15.95c0.16,0.71,0.24,1.52,0.22,2.46
			c-0.02,0.66-0.09,1.24-0.22,1.76v30.09c0.48,0,0.96,0,1.45,0c0,25.4,0,50.64,0,75.79l19.55-8.73V928.01h3.2
			c0.07-1.57,0.16-3.28,0.27-5.15c0.34-6.19,3.99-10.21,7.1-14.7c14.49-20.98,34.52-35.79,55.01-50.35
			c31.9-22.67,52.12-52.49,50.17-93.25c-1.84-38.32-28.64-63.97-50.44-91.36c-8.7-10.93-15.48-18.88-8.67-32.16
			c-1.18,13.01,2.07,20.86,11.49,23.93c7.07,2.3,10.43,6.06,11.7,13.77c1.69,10.29,8.49,17.48,19.55,17.79
			c15.3,0.43,22.75-15.01,14.71-29.12c-4.21-7.39-12.07-12.78-12.84-22.5c8.28-4.48,16.65-5.75,26.73-2.95
			c-5.17-10.89-13.73-15.57-23.18-19.98c5.59-7.83,6.87-15.92,1.57-22.87c-8.68-11.39-18.41-21.98-30.96-28.63
			c-4.3,4.73,1.78,10.3-3.6,14.44c-10.07-7.98-15.48-22.83-32.09-21.52c0.41,6.83,4.91,12.34,3.4,18.85
			c-11.36-1.51-18.53-10.42-27.91-14.89c-5.5,9.21-9.03,18.34-5.03,28c7.36,17.76,23.4,19.79,40.66,19.2
			c-11.87,9.04-23.1,16.35-32.22,26.68c-20.66,23.37-30.29,51.8-38.67,80.91c-3.64,12.64-10.2,23.05-21.54,30.17
			c-12.9,8.1-25.84,3.61-29.32-11.11c-1.71-7.26-1.31-15.07-1.49-22.64c-0.85-35.27-16.86-60.93-47.94-77.63
			c-53.31-28.63-122.44,5.03-131.58,67.3c-1.94,13.19,2.45,27.61,9.98,33.23c3.26-32.28,15.92-59.11,47.23-72.85
			c23.04-10.11,45.77-7.97,66.4,8.15c-19.67-5.49-39.18-7.45-59.39,1.16c-32.55,19.67-43.55,45.35-32.55,73.95
			c22.33-36.88,44.69-48.95,71.21-36.88c-21.24,2.88-40.08,8.09-49.98,27.94c-10.26,20.58-8.49,40.84,4.31,55.16
			c11.34-30.11,22.46-40.26,41.29-36.71c-18.42,11.97-27.38,27.96-22.66,49.66c1.83,8.42,6.66,14.58,15.91,16.58
			c2.16-20.5,10.24-30.51,26.25-33.21c-14.62,20.96-10.27,43.46,4.62,48.34C841.41,833.13,841.49,822.37,855.87,818.97z
			 M1013.55,769.48c3.22,11.82,5.16,23.59-0.99,35.44c-3.33,17.79-15,27.7-26.93,35.56c-17.22,11.35-36.49,19.06-58,17.95
			c-1.19-0.06-2.41,0.06-3.56-0.2c-0.58-0.13-1.03-0.89-2.5-2.28C968.01,843.7,1010.7,827.8,1013.55,769.48z"/>
	</g>
</g>
<rect x="948" y="900.88" width="28.57" height="156"/>
</svg>
